#N canvas 301 303 806 534 12;
#X obj 692 102 tgl 30 0 empty empty empty 17 7 0 10 #fcfcfc #000000
#000000 0 1;
#X obj 670 166 bng 15 250 50 0 empty empty empty 17 7 0 10 #fcfcfc
#000000 #000000;
#N canvas 182 182 450 300 \$0-osc-weki 0;
#X obj 27 49 oscformat wek inputs;
#X obj 27 99 netsend -u -b;
#X msg 181 44 connect localhost 6448;
#X obj 27 158 oscparse;
#X obj 27 133 netreceive -u -b 12000;
#X obj 181 20 r \$0-lb;
#X obj 27 20 inlet;
#X obj 27 182 unpack s s f f;
#X obj 90 226 pack f f;
#X obj 90 250 outlet;
#X connect 0 0 1 0;
#X connect 2 0 1 0;
#X connect 3 0 7 0;
#X connect 4 0 3 0;
#X connect 5 0 2 0;
#X connect 6 0 0 0;
#X connect 7 2 8 0;
#X connect 7 3 8 1;
#X connect 8 0 9 0;
#X restore 692 223 pd \$0-osc-weki;
#N canvas 208 208 1124 347 \$0-midi-weki 0;
#X obj 68 59 sel 0 127;
#X obj 68 117 i 0;
#X obj 68 219 outlet;
#X obj 15 35 notein 1;
#X floatatom 85 147 5 0 0 0 - - - 0;
#X msg 68 83 -1;
#X obj 198 59 sel 0 127;
#X obj 198 117 i 0;
#X floatatom 215 147 5 0 0 0 - - - 0;
#X msg 198 83 -1;
#X obj 145 35 notein 2;
#X obj 318 59 sel 0 127;
#X obj 318 117 i 0;
#X floatatom 335 147 5 0 0 0 - - - 0;
#X msg 318 83 -1;
#X obj 448 59 sel 0 127;
#X obj 448 117 i 0;
#X floatatom 465 147 5 0 0 0 - - - 0;
#X msg 448 83 -1;
#X obj 568 59 sel 0 127;
#X obj 568 117 i 0;
#X floatatom 585 147 5 0 0 0 - - - 0;
#X msg 568 83 -1;
#X obj 698 59 sel 0 127;
#X obj 698 117 i 0;
#X floatatom 715 147 5 0 0 0 - - - 0;
#X msg 698 83 -1;
#X obj 818 59 sel 0 127;
#X obj 818 117 i 0;
#X floatatom 835 147 5 0 0 0 - - - 0;
#X msg 818 83 -1;
#X obj 948 59 sel 0 127;
#X obj 948 117 i 0;
#X floatatom 965 147 5 0 0 0 - - - 0;
#X msg 948 83 -1;
#X obj 265 35 notein 3;
#X obj 395 35 notein 4;
#X obj 515 35 notein 5;
#X obj 645 35 notein 6;
#X obj 765 35 notein 7;
#X obj 895 35 notein 8;
#X msg 98 83 1;
#X msg 228 83 2;
#X msg 348 83 3;
#X msg 478 83 4;
#X msg 598 83 5;
#X msg 728 83 6;
#X msg 848 83 7;
#X msg 978 83 8;
#X connect 0 0 5 0;
#X connect 0 1 41 0;
#X connect 1 0 4 0;
#X connect 1 0 2 0;
#X connect 3 1 0 0;
#X connect 5 0 1 0;
#X connect 6 0 9 0;
#X connect 6 1 42 0;
#X connect 7 0 8 0;
#X connect 7 0 2 0;
#X connect 9 0 7 0;
#X connect 10 1 6 0;
#X connect 11 0 14 0;
#X connect 11 1 43 0;
#X connect 12 0 13 0;
#X connect 12 0 2 0;
#X connect 14 0 12 0;
#X connect 15 0 18 0;
#X connect 15 1 44 0;
#X connect 16 0 17 0;
#X connect 16 0 2 0;
#X connect 18 0 16 0;
#X connect 19 0 22 0;
#X connect 19 1 45 0;
#X connect 20 0 21 0;
#X connect 20 0 2 0;
#X connect 22 0 20 0;
#X connect 23 0 26 0;
#X connect 23 1 46 0;
#X connect 24 0 25 0;
#X connect 24 0 2 0;
#X connect 26 0 24 0;
#X connect 27 0 30 0;
#X connect 27 1 47 0;
#X connect 28 0 29 0;
#X connect 28 0 2 0;
#X connect 30 0 28 0;
#X connect 31 0 34 0;
#X connect 31 1 48 0;
#X connect 32 0 33 0;
#X connect 32 0 2 0;
#X connect 34 0 32 0;
#X connect 35 1 11 0;
#X connect 36 1 15 0;
#X connect 37 1 19 0;
#X connect 38 1 23 0;
#X connect 39 1 27 0;
#X connect 40 1 31 0;
#X connect 41 0 1 0;
#X connect 42 0 7 0;
#X connect 43 0 12 0;
#X connect 44 0 16 0;
#X connect 45 0 20 0;
#X connect 46 0 24 0;
#X connect 47 0 28 0;
#X connect 48 0 32 0;
#X restore 43 33 pd \$0-midi-weki;
#X obj 731 39 s \$0-lb;
#X obj 731 15 loadbang;
#N canvas 383 201 658 508 \$0-osc-audiostellar 0;
#X obj 33 17 inlet;
#N canvas 182 182 890 387 \$0-extras 0;
#X obj 17 225 netsend -u -b;
#X msg 17 129 connect 127.0.0.1 8000;
#X obj 17 298 oscparse;
#X obj 17 84 loadbang;
#X text 17 179 Send to AudioStellar;
#X text 17 248 Receive from AudioStellar;
#X text 28 107 Set IP address and port to send to;
#X text 544 13 In Pd OSC addresses are written without slashes;
#X obj 17 154 s osc_send;
#X obj 17 201 r osc_send;
#X obj 17 325 s osc_recieve;
#X obj 17 273 netreceive -u -b 9000;
#X obj 544 55 oscformat play xy;
#X obj 103 325 print received;
#X text 544 34 i.e this sets the OSC address to /play/xy;
#X text 150 273 Receiving port;
#X text 17 12 Enable OSC from AudioStellar in Settings > OSC. Create
an OSC Unit. Make sure send address is set to 127.0.0.1 or the IP of
the computer you want to receive OSC, f 80;
#X connect 1 0 8 0;
#X connect 2 0 10 0;
#X connect 2 0 13 0;
#X connect 3 0 1 0;
#X connect 9 0 0 0;
#X connect 11 0 2 0;
#X restore 526 328 pd \$0-extras;
#N canvas 176 98 1286 812 \$0-ad-defaut-osc 0;
#X obj 40 473 list prepend send;
#X obj 40 503 list trim;
#X obj 40 384 tgl 15 0 empty empty empty 17 7 0 10 #fcfcfc #000000
#000000 0 1;
#X obj 41 600 list trim;
#X obj 273 443 list prepend send;
#X obj 273 473 list trim;
#X obj 273 384 bng 15 250 50 0 empty empty empty 17 7 0 10 #fcfcfc
#000000 #000000;
#X obj 537 479 list prepend send;
#X obj 537 509 list trim;
#X floatatom 537 390 5 0 0 0 - - - 0;
#X obj 537 609 list trim;
#X obj 537 420 pack;
#X text 536 365 Sound ID;
#X obj 537 681 list prepend set;
#X obj 537 707 list trim;
#X text 60 383 Enable:1 disable: 0;
#X floatatom 40 412 5 0 0 0 - - - 0;
#X text 537 337 Get the IDs of neighbor sounds.;
#X text 596 365 threshold (min: 0 \, max: 1.0);
#X text 313 337 Get the number of sounds in dataset;
#X obj 40 530 s osc_send;
#X obj 273 500 s osc_send;
#X obj 537 536 s osc_send;
#X obj 41 579 r osc_recieve;
#X obj 537 586 r osc_recieve;
#X obj 827 450 list prepend send;
#X obj 827 473 list trim;
#X floatatom 827 402 5 0 0 0 - - - 0;
#X obj 827 495 s osc_send;
#X text 863 401 SoundID;
#X obj 827 563 list trim;
#X obj 827 541 r osc_recieve;
#X text 825 355 Get cluster name by sound ID;
#X obj 827 629 symbol;
#X symbolatom 827 651 10 0 0 0 - - - 0;
#X obj 273 413 oscformat get soundCount;
#X obj 537 449 oscformat get neighborsByID;
#X obj 41 622 route get;
#X obj 537 633 route get;
#X obj 537 656 route neighborsByID;
#X obj 827 585 route get;
#X obj 827 607 route clusterNameByID;
#X obj 827 428 oscformat get clusterNameByID;
#X obj 778 168 symbol;
#X obj 778 246 list prepend send;
#X obj 778 270 list trim;
#X obj 778 292 s osc_send;
#X msg 778 113 Snares;
#X msg 788 139 Kicks;
#X floatatom 41 703 5 0 0 0 - - - 0;
#X floatatom 77 703 5 0 0 0 - - - 0;
#X floatatom 840 146 5 0 0 0 - - - 0;
#X msg 660 731 1 2 3 10 11 33 48 49 50;
#X obj 778 224 oscformat play cluster;
#X floatatom 112 703 5 0 0 0 - - - 0;
#X floatatom 150 703 5 0 0 0 - - - 0;
#X obj 41 727 s id_received;
#X obj 40 443 oscformat get playedSound;
#X obj 41 647 route playedSound;
#X obj 595 424 t b f;
#X text 40 356 Get information from any played sound;
#X text 41 554 Receive;
#X text 537 562 Receive;
#X text 659 712 Neighbors IDs;
#X obj 827 381 r id_received;
#X text 827 518 Receive;
#X text 894 651 Cluster name;
#X msg 655 410 0.025;
#X floatatom 594 392 5 0 0 0 - - - 0;
#X obj 654 389 loadbang;
#X obj 839 172 t b f;
#X obj 809 201 pack s f;
#X obj 41 675 unpack f f f f;
#X text 837 124 Instead of random \, select the index from selected
cluster;
#X text 777 76 Play a random sound from the cluster named "Snares"
or "Kicks", f 39;
#X text 190 703 soundID \, clusterID \, x and y;
#X obj 39 197 list prepend send;
#X obj 39 220 list trim;
#X obj 59 144 pack;
#X floatatom 59 73 5 0 1 0 - - - 0;
#X floatatom 115 73 5 0 1 0 - - - 0;
#X text 133 57 Send X and Y coordinates to play sounds;
#X text 50 52 X;
#X text 112 53 Y;
#X obj 105 98 t b f;
#X obj 39 243 s osc_send;
#X obj 39 174 oscformat play xy;
#X text 154 74 (Shift + drag to send decimal values);
#X obj 220 269 list prepend send;
#X obj 220 293 list trim;
#X obj 220 315 s osc_send;
#X floatatom 220 152 5 0 0 0 - - - 0;
#X obj 220 247 oscformat play clusterBySoundId;
#X floatatom 266 175 5 0 0 0 - - - 0;
#X floatatom 305 174 5 0 0 0 - - - 0;
#X obj 255 226 pack;
#X obj 295 197 t b f;
#X text 208 114 Play a random sound from the cluster that contains
this sound ID;
#X text 338 173 Instead of random \, select the index from selected
cluster;
#X obj 24 14 inlet;
#X obj 1087 464 list trim;
#X obj 1087 438 r osc_recieve;
#X obj 1087 488 route get;
#X obj 1087 514 route soundCount;
#X text 1087 413 Receive;
#X text 1124 541 Sound count;
#X obj 1087 538 i 0;
#X floatatom 1123 562 5 0 0 0 - - - 0;
#X obj 375 295 r \$0-lb;
#X connect 0 0 1 0;
#X connect 1 0 20 0;
#X connect 2 0 16 0;
#X connect 3 0 37 0;
#X connect 4 0 5 0;
#X connect 5 0 21 0;
#X connect 6 0 35 0;
#X connect 7 0 8 0;
#X connect 8 0 22 0;
#X connect 9 0 11 0;
#X connect 10 0 38 0;
#X connect 11 0 36 0;
#X connect 13 0 14 0;
#X connect 14 0 52 0;
#X connect 16 0 57 0;
#X connect 23 0 3 0;
#X connect 24 0 10 0;
#X connect 25 0 26 0;
#X connect 26 0 28 0;
#X connect 27 0 42 0;
#X connect 30 0 40 0;
#X connect 31 0 30 0;
#X connect 33 0 34 0;
#X connect 35 0 4 0;
#X connect 36 0 7 0;
#X connect 37 0 58 0;
#X connect 38 0 39 0;
#X connect 39 0 13 0;
#X connect 40 0 41 0;
#X connect 41 0 33 0;
#X connect 42 0 25 0;
#X connect 43 0 53 0;
#X connect 43 0 71 0;
#X connect 44 0 45 0;
#X connect 45 0 46 0;
#X connect 47 0 43 0;
#X connect 48 0 43 0;
#X connect 49 0 56 0;
#X connect 51 0 70 0;
#X connect 53 0 44 0;
#X connect 57 0 0 0;
#X connect 58 0 72 0;
#X connect 59 0 11 0;
#X connect 59 1 11 1;
#X connect 64 0 27 0;
#X connect 67 0 68 0;
#X connect 68 0 59 0;
#X connect 69 0 67 0;
#X connect 70 0 71 0;
#X connect 70 1 71 1;
#X connect 71 0 53 0;
#X connect 72 0 49 0;
#X connect 72 1 50 0;
#X connect 72 2 54 0;
#X connect 72 3 55 0;
#X connect 76 0 77 0;
#X connect 77 0 85 0;
#X connect 78 0 86 0;
#X connect 79 0 78 0;
#X connect 80 0 84 0;
#X connect 84 0 78 0;
#X connect 84 1 78 1;
#X connect 86 0 76 0;
#X connect 88 0 89 0;
#X connect 89 0 90 0;
#X connect 91 0 92 0;
#X connect 92 0 88 0;
#X connect 93 0 95 0;
#X connect 94 0 96 0;
#X connect 95 0 92 0;
#X connect 95 0 90 0;
#X connect 95 0 89 0;
#X connect 95 0 88 0;
#X connect 96 0 95 0;
#X connect 96 1 95 1;
#X connect 100 0 102 0;
#X connect 101 0 100 0;
#X connect 102 0 103 0;
#X connect 103 0 106 0;
#X connect 106 0 107 0;
#X connect 108 0 6 0;
#X restore 370 327 pd \$0-ad-defaut-osc;
#X obj 33 309 list prepend send;
#X obj 33 332 list trim;
#X obj 33 355 s osc_send;
#X obj 33 286 oscformat;
#X obj 33 60 t b f;
#X msg 33 223 set units \$1 volume;
#X obj 197 19 inlet;
#X obj 175 66 random 11;
#X obj 175 90 expr (($f1/10)+1)/2;
#X obj 342 66 t b f;
#X obj 323 247 oscformat;
#X msg 323 223 set units \$1 pan;
#X obj 384 122 random 11;
#X obj 384 146 expr (($f1/10)+1)/2;
#X obj 175 114 pack f 1000;
#X obj 175 138 line;
#X obj 384 171 pack f 1000;
#X obj 384 195 line;
#X obj 38 97 bng 15 250 50 0 empty empty empty 17 7 0 10 #fcfcfc #000000
#000000;
#X connect 0 0 7 0;
#X connect 0 0 12 0;
#X connect 3 0 4 0;
#X connect 4 0 5 0;
#X connect 6 0 3 0;
#X connect 7 0 21 0;
#X connect 7 1 8 0;
#X connect 8 0 6 0;
#X connect 9 0 10 0;
#X connect 10 0 11 0;
#X connect 11 0 17 0;
#X connect 12 0 15 0;
#X connect 12 1 14 0;
#X connect 13 0 3 0;
#X connect 14 0 13 0;
#X connect 15 0 16 0;
#X connect 16 0 19 0;
#X connect 17 0 18 0;
#X connect 18 0 6 0;
#X connect 19 0 20 0;
#X connect 20 0 13 0;
#X restore 82 155 pd \$0-osc-audiostellar;
#X obj 692 142 metro 500;
#X obj 692 166 list;
#X obj 692 247 print \$0-b;
#X obj 43 57 sel -1;
#X obj 43 91 bng 15 250 50 0 empty empty empty 17 7 0 10 #fcfcfc #000000
#000000;
#X connect 0 0 7 0;
#X connect 2 0 9 0;
#X connect 3 0 10 0;
#X connect 5 0 4 0;
#X connect 7 0 1 0;
#X connect 7 0 8 0;
#X connect 8 0 2 0;
#X connect 10 0 11 0;
#X connect 10 0 6 1;
#X connect 10 1 6 0;
