#N canvas 70 335 1183 534 12;
#N canvas 182 182 450 300 \$0-osc-weki 0;
#X obj 27 49 oscformat wek inputs;
#X obj 27 99 netsend -u -b;
#X msg 181 44 connect localhost 6448;
#X obj 27 158 oscparse;
#X obj 27 133 netreceive -u -b 12000;
#X obj 181 20 r \$0-lb;
#X obj 27 20 inlet;
#X obj 27 182 unpack s s f f;
#X obj 90 226 pack f f;
#X obj 90 250 outlet;
#X connect 0 0 1 0;
#X connect 2 0 1 0;
#X connect 3 0 7 0;
#X connect 4 0 3 0;
#X connect 5 0 2 0;
#X connect 6 0 0 0;
#X connect 7 2 8 0;
#X connect 7 3 8 1;
#X connect 8 0 9 0;
#X restore 357 175 pd \$0-osc-weki;
#X obj 761 49 s \$0-lb;
#X obj 761 25 loadbang;
#N canvas 222 135 755 583 \$0-osc-audiostellar 0;
#X obj 33 7 inlet;
#N canvas 182 182 890 387 \$0-extras 0;
#X obj 17 225 netsend -u -b;
#X msg 17 129 connect 127.0.0.1 8000;
#X obj 17 298 oscparse;
#X obj 17 84 loadbang;
#X text 17 179 Send to AudioStellar;
#X text 17 248 Receive from AudioStellar;
#X text 28 107 Set IP address and port to send to;
#X text 544 13 In Pd OSC addresses are written without slashes;
#X obj 17 154 s osc_send;
#X obj 17 201 r osc_send;
#X obj 17 325 s osc_recieve;
#X obj 17 273 netreceive -u -b 9000;
#X obj 544 55 oscformat play xy;
#X obj 133 325 print received;
#X text 544 34 i.e this sets the OSC address to /play/xy;
#X text 150 273 Receiving port;
#X text 17 12 Enable OSC from AudioStellar in Settings > OSC. Create
an OSC Unit. Make sure send address is set to 127.0.0.1 or the IP of
the computer you want to receive OSC, f 80;
#X connect 1 0 8 0;
#X connect 2 0 10 0;
#X connect 3 0 1 0;
#X connect 9 0 0 0;
#X connect 11 0 2 0;
#X restore 468 514 pd \$0-extras;
#X obj 33 429 list prepend send;
#X obj 33 452 list trim;
#X obj 33 475 s osc_send;
#X obj 33 406 oscformat;
#X msg 33 343 set units \$1 volume;
#X obj 182 397 oscformat;
#X msg 182 343 set units \$1 pan;
#X obj 305 210 pack f 1000;
#X obj 305 234 line;
#X obj 396 210 pack f 1000;
#X obj 396 234 line;
#X obj 364 8 inlet;
#X obj 364 62 unpack f f;
#X floatatom 406 258 5 0 0 0 - - - 0;
#X obj 68 217 random 2;
#X obj 68 241 pack f f;
#X obj 68 265 route 0 1;
#X obj 33 71 t f b b;
#X obj 92 103 random 10;
#X obj 92 127 / 9;
#X obj 305 258 * 0.8;
#X floatatom 315 282 5 0 0 0 - - - 0;
#X connect 0 0 19 0;
#X connect 2 0 3 0;
#X connect 3 0 4 0;
#X connect 5 0 2 0;
#X connect 6 0 5 0;
#X connect 7 0 2 0;
#X connect 8 0 7 0;
#X connect 9 0 10 0;
#X connect 10 0 22 0;
#X connect 11 0 12 0;
#X connect 12 0 15 0;
#X connect 12 0 7 0;
#X connect 13 0 14 0;
#X connect 14 0 9 0;
#X connect 14 1 11 0;
#X connect 16 0 17 0;
#X connect 17 0 18 0;
#X connect 18 0 6 0;
#X connect 18 1 8 0;
#X connect 19 0 6 0;
#X connect 19 0 8 0;
#X connect 19 1 16 0;
#X connect 19 2 20 0;
#X connect 20 0 21 0;
#X connect 21 0 17 1;
#X connect 22 0 5 0;
#X connect 22 0 23 0;
#X restore 97 482 pd \$0-osc-audiostellar;
#X obj 17 76 i 0;
#X obj 97 214 % 12;
#X obj 97 238 + 1;
#N canvas 121 23 1286 812 \$0-ad-defaut-osc 0;
#X obj 40 473 list prepend send;
#X obj 40 503 list trim;
#X obj 40 384 tgl 15 0 empty empty empty 17 7 0 10 #fcfcfc #000000
#000000 0 1;
#X obj 41 600 list trim;
#X obj 273 443 list prepend send;
#X obj 273 473 list trim;
#X obj 273 384 bng 15 250 50 0 empty empty empty 17 7 0 10 #fcfcfc
#000000 #000000;
#X obj 537 479 list prepend send;
#X obj 537 509 list trim;
#X floatatom 537 390 5 0 0 0 - - - 0;
#X obj 537 609 list trim;
#X obj 537 420 pack;
#X text 536 365 Sound ID;
#X obj 537 681 list prepend set;
#X obj 537 707 list trim;
#X text 60 383 Enable:1 disable: 0;
#X floatatom 40 412 5 0 0 0 - - - 0;
#X text 537 337 Get the IDs of neighbor sounds.;
#X text 596 365 threshold (min: 0 \, max: 1.0);
#X text 313 337 Get the number of sounds in dataset;
#X obj 40 530 s osc_send;
#X obj 273 500 s osc_send;
#X obj 537 536 s osc_send;
#X obj 41 579 r osc_recieve;
#X obj 537 586 r osc_recieve;
#X obj 827 450 list prepend send;
#X obj 827 473 list trim;
#X floatatom 827 402 5 0 0 0 - - - 0;
#X obj 827 495 s osc_send;
#X text 863 401 SoundID;
#X obj 827 563 list trim;
#X obj 827 541 r osc_recieve;
#X text 825 355 Get cluster name by sound ID;
#X obj 827 629 symbol;
#X symbolatom 827 651 10 0 0 0 - - - 0;
#X obj 273 413 oscformat get soundCount;
#X obj 537 449 oscformat get neighborsByID;
#X obj 41 622 route get;
#X obj 537 633 route get;
#X obj 537 656 route neighborsByID;
#X obj 827 585 route get;
#X obj 827 607 route clusterNameByID;
#X obj 827 428 oscformat get clusterNameByID;
#X obj 778 168 symbol;
#X obj 778 246 list prepend send;
#X obj 778 270 list trim;
#X obj 778 292 s osc_send;
#X msg 778 113 Snares;
#X msg 788 139 Kicks;
#X floatatom 41 703 5 0 0 0 - - - 0;
#X floatatom 77 703 5 0 0 0 - - - 0;
#X floatatom 840 146 5 0 0 0 - - - 0;
#X obj 778 224 oscformat play cluster;
#X floatatom 112 703 5 0 0 0 - - - 0;
#X floatatom 150 703 5 0 0 0 - - - 0;
#X obj 41 757 s id_received;
#X obj 40 443 oscformat get playedSound;
#X obj 41 647 route playedSound;
#X obj 595 424 t b f;
#X text 40 356 Get information from any played sound;
#X text 41 554 Receive;
#X text 537 562 Receive;
#X text 607 707 Neighbors IDs;
#X obj 827 381 r id_received;
#X text 827 518 Receive;
#X text 894 651 Cluster name;
#X msg 655 410 0.025;
#X floatatom 594 392 5 0 0 0 - - - 0;
#X obj 654 389 loadbang;
#X obj 839 172 t b f;
#X obj 809 201 pack s f;
#X obj 41 675 unpack f f f f;
#X text 837 124 Instead of random \, select the index from selected
cluster;
#X text 777 76 Play a random sound from the cluster named "Snares"
or "Kicks", f 39;
#X text 21 728 soundID \, clusterID \, x and y;
#X obj 39 197 list prepend send;
#X obj 39 220 list trim;
#X obj 59 144 pack;
#X floatatom 59 73 5 0 1 0 - - - 0;
#X floatatom 115 73 5 0 1 0 - - - 0;
#X text 133 57 Send X and Y coordinates to play sounds;
#X text 50 52 X;
#X text 112 53 Y;
#X obj 105 98 t b f;
#X obj 39 243 s osc_send;
#X obj 39 174 oscformat play xy;
#X text 154 74 (Shift + drag to send decimal values);
#X obj 220 269 list prepend send;
#X obj 220 293 list trim;
#X obj 220 315 s osc_send;
#X obj 220 247 oscformat play clusterBySoundId;
#X floatatom 195 174 5 0 0 0 - - - 0;
#X floatatom 234 173 5 0 0 0 - - - 0;
#X obj 184 225 pack;
#X obj 224 196 t b f;
#X text 192 138 Play a random sound from the cluster that contains
this sound ID;
#X text 279 175 Instead of random \, select the index from selected
cluster;
#X obj 1087 464 list trim;
#X obj 1087 438 r osc_recieve;
#X obj 1087 488 route get;
#X obj 1087 514 route soundCount;
#X text 1087 413 Receive;
#X text 1124 541 Sound count;
#X obj 1087 538 i 0;
#X floatatom 1123 562 5 0 0 0 - - - 0;
#X obj 285 656 f 0;
#X obj 315 656 f 0;
#X obj 345 656 f 0;
#X obj 375 656 f 0;
#X obj 259 742 i 0;
#X obj 443 28 inlet;
#X floatatom 259 766 5 0 0 0 - - - 0;
#X obj 50 12 inlet;
#X obj 335 296 r \$0-lb;
#X obj 570 31 inlet;
#X obj 570 55 expr random($f2 \, $f3);
#X obj 325 542 sel 0 1 2 3;
#X obj 388 611 unpack f f f f;
#X connect 0 0 1 0;
#X connect 1 0 20 0;
#X connect 2 0 16 0;
#X connect 3 0 37 0;
#X connect 4 0 5 0;
#X connect 5 0 21 0;
#X connect 6 0 35 0;
#X connect 7 0 8 0;
#X connect 8 0 22 0;
#X connect 9 0 11 0;
#X connect 10 0 38 0;
#X connect 11 0 36 0;
#X connect 13 0 14 0;
#X connect 16 0 56 0;
#X connect 23 0 3 0;
#X connect 24 0 10 0;
#X connect 25 0 26 0;
#X connect 26 0 28 0;
#X connect 27 0 42 0;
#X connect 30 0 40 0;
#X connect 31 0 30 0;
#X connect 33 0 34 0;
#X connect 33 0 52 0;
#X connect 35 0 4 0;
#X connect 36 0 7 0;
#X connect 37 0 57 0;
#X connect 38 0 39 0;
#X connect 39 0 13 0;
#X connect 39 0 117 0;
#X connect 40 0 41 0;
#X connect 41 0 33 0;
#X connect 42 0 25 0;
#X connect 43 0 52 0;
#X connect 43 0 70 0;
#X connect 44 0 45 0;
#X connect 45 0 46 0;
#X connect 47 0 43 0;
#X connect 48 0 43 0;
#X connect 49 0 55 0;
#X connect 51 0 69 0;
#X connect 52 0 44 0;
#X connect 56 0 0 0;
#X connect 57 0 71 0;
#X connect 58 0 11 0;
#X connect 58 1 11 1;
#X connect 63 0 27 0;
#X connect 66 0 67 0;
#X connect 67 0 58 0;
#X connect 68 0 66 0;
#X connect 69 0 70 0;
#X connect 69 1 70 1;
#X connect 70 0 52 0;
#X connect 71 0 49 0;
#X connect 71 0 115 1;
#X connect 71 1 50 0;
#X connect 71 2 53 0;
#X connect 71 3 54 0;
#X connect 75 0 76 0;
#X connect 76 0 84 0;
#X connect 77 0 85 0;
#X connect 78 0 77 0;
#X connect 79 0 83 0;
#X connect 83 0 77 0;
#X connect 83 1 77 1;
#X connect 85 0 75 0;
#X connect 87 0 88 0;
#X connect 88 0 89 0;
#X connect 90 0 87 0;
#X connect 91 0 93 0;
#X connect 92 0 94 0;
#X connect 93 0 90 0;
#X connect 93 0 89 0;
#X connect 93 0 88 0;
#X connect 93 0 87 0;
#X connect 94 0 93 0;
#X connect 94 1 93 1;
#X connect 97 0 99 0;
#X connect 98 0 97 0;
#X connect 99 0 100 0;
#X connect 100 0 103 0;
#X connect 103 0 104 0;
#X connect 103 0 115 2;
#X connect 105 0 109 0;
#X connect 106 0 109 0;
#X connect 107 0 109 0;
#X connect 108 0 109 0;
#X connect 109 0 111 0;
#X connect 109 0 90 0;
#X connect 110 0 116 0;
#X connect 112 0 85 0;
#X connect 113 0 6 0;
#X connect 114 0 115 0;
#X connect 115 0 9 0;
#X connect 116 0 105 0;
#X connect 116 1 106 0;
#X connect 116 2 107 0;
#X connect 116 3 108 0;
#X connect 117 0 105 1;
#X connect 117 1 106 1;
#X connect 117 2 107 1;
#X connect 117 3 108 1;
#X restore 776 483 pd \$0-ad-defaut-osc;
#X obj 705 43 tgl 30 0 empty empty empty 17 7 0 10 #fcfcfc #000000
#000000 0 1;
#X obj 683 107 bng 15 250 50 0 empty empty empty 17 7 0 10 #fcfcfc
#000000 #000000;
#X obj 705 83 metro 500;
#X obj 77 120 + 0;
#X floatatom 107 262 5 0 0 0 - - - 0;
#N canvas 333 318 605 255 \$0-midi-weki-bumpers 0;
#X obj 78 59 sel 0 127;
#X obj 197 59 sel 0 127;
#X obj 78 127 f 0;
#X obj 197 127 f 0;
#X obj 25 25 notein 5;
#X obj 144 25 notein 6;
#X obj 268 199 outlet;
#X msg 78 93 0;
#X msg 197 93 0;
#X floatatom 78 151 5 0 0 0 - - - 0;
#X floatatom 197 151 5 0 0 0 - - - 0;
#X msg 227 93 1;
#X msg 108 93 -1;
#X connect 0 0 7 0;
#X connect 0 1 12 0;
#X connect 1 0 8 0;
#X connect 1 1 11 0;
#X connect 2 0 6 0;
#X connect 2 0 9 0;
#X connect 3 0 6 0;
#X connect 3 0 10 0;
#X connect 4 1 0 0;
#X connect 5 1 1 0;
#X connect 7 0 2 0;
#X connect 8 0 3 0;
#X connect 11 0 3 0;
#X connect 12 0 2 0;
#X restore 70 22 pd \$0-midi-weki-bumpers;
#X obj 207 76 i 0;
#X obj 267 120 + 0;
#X obj 287 214 % 4;
#X floatatom 287 238 5 0 0 0 - - - 0;
#N canvas 333 318 605 255 \$0-midi-weki-riggers 0;
#X obj 78 59 sel 0 127;
#X obj 197 59 sel 0 127;
#X obj 78 127 f 0;
#X obj 197 127 f 0;
#X obj 268 199 outlet;
#X msg 78 93 0;
#X msg 197 93 0;
#X floatatom 78 151 5 0 0 0 - - - 0;
#X floatatom 197 151 5 0 0 0 - - - 0;
#X msg 227 93 1;
#X msg 108 93 -1;
#X obj 25 25 notein 7;
#X obj 144 25 notein 8;
#X connect 0 0 5 0;
#X connect 0 1 10 0;
#X connect 1 0 6 0;
#X connect 1 1 9 0;
#X connect 2 0 4 0;
#X connect 2 0 7 0;
#X connect 3 0 4 0;
#X connect 3 0 8 0;
#X connect 5 0 2 0;
#X connect 6 0 3 0;
#X connect 9 0 3 0;
#X connect 10 0 2 0;
#X connect 11 1 0 0;
#X connect 12 1 1 0;
#X restore 260 22 pd \$0-midi-weki-riggers;
#N canvas 333 191 605 382 \$0-midi-weki-btns 0;
#X obj 78 49 sel 0 127;
#X obj 78 333 outlet;
#X obj 197 49 sel 0 127;
#X msg 108 73 1;
#X obj 328 49 sel 0 127;
#X obj 447 49 sel 0 127;
#X msg 358 73 1;
#X obj 78 131 pack f 1000;
#X obj 78 155 line;
#X obj 197 131 pack f 1000;
#X obj 197 155 line;
#X obj 328 131 pack f 1000;
#X obj 328 155 line;
#X obj 447 131 pack f 1000;
#X obj 447 155 line;
#X obj 78 249 f 0;
#X obj 328 219 t b f;
#X obj 101 307 print \$0_xy;
#X obj 144 25 notein 1;
#X obj 25 25 notein 3;
#X obj 275 25 notein 4;
#X obj 395 25 notein 2;
#X msg 78 73 0.5;
#X msg 197 73 0.5;
#X msg 227 73 0;
#X msg 328 73 0.5;
#X msg 447 73 0.5;
#X msg 477 73 0;
#X obj 78 273 pack 0 0;
#X obj 78 107 f 0;
#X obj 197 107 f 0;
#X obj 328 107 f 0;
#X obj 447 107 f 0;
#X connect 0 0 22 0;
#X connect 0 1 3 0;
#X connect 2 0 23 0;
#X connect 2 1 24 0;
#X connect 3 0 29 0;
#X connect 4 0 25 0;
#X connect 4 1 6 0;
#X connect 5 0 26 0;
#X connect 5 1 27 0;
#X connect 6 0 31 0;
#X connect 7 0 8 0;
#X connect 8 0 15 0;
#X connect 9 0 10 0;
#X connect 10 0 15 0;
#X connect 11 0 12 0;
#X connect 12 0 16 0;
#X connect 13 0 14 0;
#X connect 14 0 16 0;
#X connect 15 0 28 0;
#X connect 16 0 15 0;
#X connect 16 1 28 1;
#X connect 18 1 2 0;
#X connect 19 1 0 0;
#X connect 20 1 4 0;
#X connect 21 1 5 0;
#X connect 22 0 29 0;
#X connect 23 0 30 0;
#X connect 24 0 30 0;
#X connect 25 0 31 0;
#X connect 26 0 32 0;
#X connect 27 0 32 0;
#X connect 28 0 1 0;
#X connect 28 0 17 0;
#X connect 29 0 7 0;
#X connect 30 0 9 0;
#X connect 31 0 11 0;
#X connect 32 0 13 0;
#X restore 396 72 pd \$0-midi-weki-btns;
#X obj 70 46 t b f;
#X obj 260 46 t b f;
#X msg 47 168 11;
#X msg 237 168 3;
#X obj 77 144 sel -1;
#X obj 267 144 sel -1;
#X obj 430 336 unpack f f;
#X obj 705 107 random 2;
#X obj 705 131 sel 0 1;
#X obj 705 155 random 10;
#X obj 705 179 / 9;
#X obj 705 203 t b f;
#X obj 705 236 random 2;
#X obj 705 260 pack f f;
#X obj 705 284 route 0 1;
#X obj 380 406 + 0;
#X obj 450 406 + 0;
#X obj 380 430 / 2;
#X obj 450 430 / 2;
#X obj 380 454 pack f f;
#X obj 357 199 t b l;
#X msg 357 223 0;
#X obj 334 226 bng 15 250 50 0 empty empty empty 17 7 0 10 #fcfcfc
#000000 #000000;
#X floatatom 430 360 5 0 0 0 - - - 0;
#X connect 0 0 40 0;
#X connect 2 0 1 0;
#X connect 4 0 11 0;
#X connect 5 0 4 1;
#X connect 5 0 6 0;
#X connect 6 0 3 0;
#X connect 6 0 12 0;
#X connect 8 0 10 0;
#X connect 10 0 9 0;
#X connect 10 0 27 0;
#X connect 11 0 24 0;
#X connect 13 0 20 0;
#X connect 14 0 15 0;
#X connect 15 0 25 0;
#X connect 16 0 14 1;
#X connect 16 0 17 0;
#X connect 16 0 7 1;
#X connect 18 0 21 0;
#X connect 19 0 0 0;
#X connect 19 0 7 0;
#X connect 20 0 4 0;
#X connect 20 1 11 1;
#X connect 21 0 14 0;
#X connect 21 1 15 1;
#X connect 22 0 20 0;
#X connect 23 0 21 0;
#X connect 24 0 22 0;
#X connect 24 1 5 0;
#X connect 25 0 23 0;
#X connect 25 1 16 0;
#X connect 26 0 43 0;
#X connect 26 0 35 1;
#X connect 26 1 36 1;
#X connect 27 0 28 0;
#X connect 28 0 29 0;
#X connect 28 1 7 2;
#X connect 29 0 30 0;
#X connect 30 0 31 0;
#X connect 31 0 32 0;
#X connect 31 1 33 1;
#X connect 32 0 33 0;
#X connect 33 0 34 0;
#X connect 34 0 35 0;
#X connect 34 1 36 0;
#X connect 35 0 37 0;
#X connect 36 0 38 0;
#X connect 37 0 39 0;
#X connect 38 0 39 1;
#X connect 39 0 3 1;
#X connect 40 0 41 0;
#X connect 40 0 42 0;
#X connect 40 1 26 0;
#X connect 41 0 3 0;
