#N canvas 253 151 806 534 12;
#X obj 30 96 tgl 15 0 empty empty empty 17 7 0 10 #fcfcfc #000000 #000000
0 1;
#X obj 8 140 bng 15 250 50 0 empty empty empty 17 7 0 10 #fcfcfc #000000
#000000;
#N canvas 182 182 450 300 \$0-osc-weki 0;
#X obj 27 49 oscformat wek inputs;
#X obj 27 99 netsend -u -b;
#X msg 181 74 connect localhost 6448;
#X obj 27 158 oscparse;
#X obj 27 133 netreceive -u -b 12000;
#X obj 181 20 r \$0-lb;
#X obj 27 20 inlet;
#X obj 27 182 unpack s s f f;
#X obj 90 226 pack f f;
#X obj 90 250 outlet;
#X connect 0 0 1 0;
#X connect 2 0 1 0;
#X connect 3 0 7 0;
#X connect 4 0 3 0;
#X connect 5 0 2 0;
#X connect 6 0 0 0;
#X connect 7 2 8 0;
#X connect 7 3 8 1;
#X connect 8 0 9 0;
#X restore 30 257 pd \$0-osc-weki;
#N canvas 208 208 715 300 \$0-midi-weki 0;
#X obj 35 35 notein 1;
#X obj 35 59 bng 15 250 50 0 empty empty empty 17 7 0 10 #fcfcfc #000000
#000000;
#X obj 161 59 bng 15 250 50 0 empty empty empty 17 7 0 10 #fcfcfc #000000
#000000;
#X obj 287 59 bng 15 250 50 0 empty empty empty 17 7 0 10 #fcfcfc #000000
#000000;
#X obj 412 59 bng 15 250 50 0 empty empty empty 17 7 0 10 #fcfcfc #000000
#000000;
#X obj 538 59 bng 15 250 50 0 empty empty empty 17 7 0 10 #fcfcfc #000000
#000000;
#X obj 97 59 bng 15 250 50 0 empty empty empty 17 7 0 10 #fcfcfc #000000
#000000;
#X obj 223 59 bng 15 250 50 0 empty empty empty 17 7 0 10 #fcfcfc #000000
#000000;
#X obj 349 59 bng 15 250 50 0 empty empty empty 17 7 0 10 #fcfcfc #000000
#000000;
#X obj 474 59 bng 15 250 50 0 empty empty empty 17 7 0 10 #fcfcfc #000000
#000000;
#X obj 600 59 bng 15 250 50 0 empty empty empty 17 7 0 10 #fcfcfc #000000
#000000;
#X obj 97 35 notein 2;
#X obj 161 35 notein 3;
#X obj 223 35 notein 4;
#X obj 287 35 notein 5;
#X obj 349 35 notein 6;
#X obj 412 35 notein 7;
#X obj 474 35 notein 8;
#X obj 538 35 notein 9;
#X obj 600 35 notein 10;
#X msg 35 79 1;
#X msg 97 79 2;
#X msg 161 79 3;
#X msg 223 79 4;
#X msg 287 79 5;
#X msg 349 79 6;
#X msg 412 79 7;
#X msg 474 79 8;
#X msg 538 79 9;
#X msg 600 79 10;
#X obj 35 136 / 10;
#X obj 35 164 outlet;
#X connect 0 0 1 0;
#X connect 1 0 20 0;
#X connect 2 0 22 0;
#X connect 3 0 24 0;
#X connect 4 0 26 0;
#X connect 5 0 28 0;
#X connect 6 0 21 0;
#X connect 7 0 23 0;
#X connect 8 0 25 0;
#X connect 9 0 27 0;
#X connect 10 0 29 0;
#X connect 11 0 6 0;
#X connect 12 0 2 0;
#X connect 13 0 7 0;
#X connect 14 0 3 0;
#X connect 15 0 8 0;
#X connect 16 0 4 0;
#X connect 17 0 9 0;
#X connect 18 0 5 0;
#X connect 19 0 10 0;
#X connect 20 0 30 0;
#X connect 21 0 30 0;
#X connect 22 0 30 0;
#X connect 23 0 30 0;
#X connect 24 0 30 0;
#X connect 25 0 30 0;
#X connect 26 0 30 0;
#X connect 27 0 30 0;
#X connect 28 0 30 0;
#X connect 29 0 30 0;
#X connect 30 0 31 0;
#X restore 30 30 pd \$0-midi-weki;
#X floatatom 30 54 5 0 0 0 - - - 0;
#X obj 653 79 s \$0-lb;
#X obj 653 55 loadbang;
#N canvas 234 234 658 335 \$0-osc-audiostellar 0;
#X obj 33 37 inlet;
#N canvas 182 182 890 387 \$0-extras 0;
#X obj 17 225 netsend -u -b;
#X msg 17 129 connect 127.0.0.1 8000;
#X obj 17 298 oscparse;
#X obj 17 84 loadbang;
#X text 17 179 Send to AudioStellar;
#X text 17 248 Receive from AudioStellar;
#X text 28 107 Set IP address and port to send to;
#X text 544 13 In Pd OSC addresses are written without slashes;
#X obj 17 154 s osc_send;
#X obj 17 201 r osc_send;
#X obj 17 325 s osc_recieve;
#X obj 17 273 netreceive -u -b 9000;
#X obj 544 55 oscformat play xy;
#X obj 103 325 print received;
#X text 544 34 i.e this sets the OSC address to /play/xy;
#X text 150 273 Receiving port;
#X text 17 12 Enable OSC from AudioStellar in Settings > OSC. Create
an OSC Unit. Make sure send address is set to 127.0.0.1 or the IP of
the computer you want to receive OSC, f 80;
#X connect 1 0 8 0;
#X connect 2 0 10 0;
#X connect 2 0 13 0;
#X connect 3 0 1 0;
#X connect 9 0 0 0;
#X connect 11 0 2 0;
#X restore 189 140 pd \$0-extras;
#N canvas 176 98 1286 812 \$0-ad-defaut-osc 0;
#X obj 40 473 list prepend send;
#X obj 40 503 list trim;
#X obj 40 384 tgl 15 0 empty empty empty 17 7 0 10 #fcfcfc #000000
#000000 0 1;
#X obj 41 600 list trim;
#X obj 273 443 list prepend send;
#X obj 273 473 list trim;
#X obj 273 384 bng 15 250 50 0 empty empty empty 17 7 0 10 #fcfcfc
#000000 #000000;
#X obj 537 499 list prepend send;
#X obj 537 529 list trim;
#X floatatom 537 410 5 0 0 0 - - - 0;
#X obj 537 629 list trim;
#X obj 537 440 pack;
#X text 536 385 Sound ID;
#X obj 537 701 list prepend set;
#X obj 537 727 list trim;
#X text 60 383 Enable:1 disable: 0;
#X floatatom 40 412 5 0 0 0 - - - 0;
#X text 537 357 Get the IDs of neighbor sounds.;
#X text 596 385 threshold (min: 0 \, max: 1.0);
#X text 313 357 Get the number of sounds in dataset;
#X obj 40 530 s osc_send;
#X obj 273 500 s osc_send;
#X obj 537 556 s osc_send;
#X obj 41 579 r osc_recieve;
#X obj 537 606 r osc_recieve;
#X obj 827 450 list prepend send;
#X obj 827 473 list trim;
#X floatatom 827 402 5 0 0 0 - - - 0;
#X obj 827 495 s osc_send;
#X text 863 401 SoundID;
#X obj 827 563 list trim;
#X obj 827 541 r osc_recieve;
#X text 825 355 Get cluster name by sound ID;
#X obj 827 629 symbol;
#X symbolatom 827 651 10 0 0 0 - - - 0;
#X obj 273 413 oscformat get soundCount;
#X obj 537 469 oscformat get neighborsByID;
#X obj 41 622 route get;
#X obj 537 653 route get;
#X obj 537 676 route neighborsByID;
#X obj 827 585 route get;
#X obj 827 607 route clusterNameByID;
#X obj 827 428 oscformat get clusterNameByID;
#X obj 778 168 symbol;
#X obj 778 246 list prepend send;
#X obj 778 270 list trim;
#X obj 778 292 s osc_send;
#X msg 778 113 Snares;
#X msg 788 139 Kicks;
#X floatatom 41 703 5 0 0 0 - - - 0;
#X floatatom 77 703 5 0 0 0 - - - 0;
#X floatatom 840 146 5 0 0 0 - - - 0;
#X msg 537 752 9 150 202 320 343 395 608 931 1231 1351 1581 1629 1720
1757 1783 1971 2106;
#X obj 778 224 oscformat play cluster;
#X floatatom 112 703 5 0 0 0 - - - 0;
#X floatatom 150 703 5 0 0 0 - - - 0;
#X obj 41 727 s id_received;
#X obj 40 443 oscformat get playedSound;
#X obj 41 647 route playedSound;
#X obj 595 444 t b f;
#X text 40 356 Get information from any played sound;
#X text 41 554 Receive;
#X text 537 582 Receive;
#X text 451 752 Neighbors IDs;
#X obj 827 381 r id_received;
#X text 827 518 Receive;
#X text 894 651 Cluster name;
#X msg 655 430 0.025;
#X floatatom 594 412 5 0 0 0 - - - 0;
#X obj 654 409 loadbang;
#X obj 839 172 t b f;
#X obj 809 201 pack s f;
#X obj 41 675 unpack f f f f;
#X text 837 124 Instead of random \, select the index from selected
cluster;
#X text 777 76 Play a random sound from the cluster named "Snares"
or "Kicks", f 39;
#X text 190 703 soundID \, clusterID \, x and y;
#X msg 116 506 devicename /dev/ttyUSB0;
#X obj 144 552 comport;
#X obj 39 197 list prepend send;
#X obj 39 220 list trim;
#X obj 39 144 pack;
#X floatatom 59 73 5 0 1 0 - - - 0;
#X floatatom 115 73 5 0 1 0 - - - 0;
#X text 120 33 Send X and Y coordinates to play sounds;
#X text 50 52 X;
#X text 112 53 Y;
#X obj 105 98 t b f;
#X obj 39 243 s osc_send;
#X obj 39 174 oscformat play xy;
#X text 154 74 (Shift + drag to send decimal values);
#X obj 220 269 list prepend send;
#X obj 220 293 list trim;
#X obj 220 315 s osc_send;
#X floatatom 220 152 5 0 0 0 - - - 0;
#X obj 220 247 oscformat play clusterBySoundId;
#X floatatom 266 175 5 0 0 0 - - - 0;
#X floatatom 305 174 5 0 0 0 - - - 0;
#X obj 255 226 pack;
#X obj 295 197 t b f;
#X text 208 114 Play a random sound from the cluster that contains
this sound ID;
#X text 338 173 Instead of random \, select the index from selected
cluster;
#X obj 39 7 inlet;
#X obj 1087 464 list trim;
#X obj 1087 438 r osc_recieve;
#X obj 1087 488 route get;
#X obj 1087 514 route soundCount;
#X text 1087 413 Receive;
#X text 1124 541 Sound count;
#X obj 1087 538 i 0;
#X floatatom 1123 562 5 0 0 0 - - - 0;
#X obj 1087 562 / 10;
#X obj 105 7 inlet;
#X connect 0 0 1 0;
#X connect 1 0 20 0;
#X connect 2 0 16 0;
#X connect 3 0 37 0;
#X connect 4 0 5 0;
#X connect 5 0 21 0;
#X connect 6 0 35 0;
#X connect 7 0 8 0;
#X connect 8 0 22 0;
#X connect 9 0 11 0;
#X connect 10 0 38 0;
#X connect 11 0 36 0;
#X connect 13 0 14 0;
#X connect 14 0 52 0;
#X connect 16 0 57 0;
#X connect 23 0 3 0;
#X connect 24 0 10 0;
#X connect 25 0 26 0;
#X connect 26 0 28 0;
#X connect 27 0 42 0;
#X connect 30 0 40 0;
#X connect 31 0 30 0;
#X connect 33 0 34 0;
#X connect 35 0 4 0;
#X connect 36 0 7 0;
#X connect 37 0 58 0;
#X connect 38 0 39 0;
#X connect 39 0 13 0;
#X connect 40 0 41 0;
#X connect 41 0 33 0;
#X connect 42 0 25 0;
#X connect 43 0 53 0;
#X connect 43 0 71 0;
#X connect 44 0 45 0;
#X connect 45 0 46 0;
#X connect 47 0 43 0;
#X connect 48 0 43 0;
#X connect 49 0 56 0;
#X connect 51 0 70 0;
#X connect 53 0 44 0;
#X connect 57 0 0 0;
#X connect 58 0 72 0;
#X connect 59 0 11 0;
#X connect 59 1 11 1;
#X connect 64 0 27 0;
#X connect 67 0 68 0;
#X connect 68 0 59 0;
#X connect 69 0 67 0;
#X connect 70 0 71 0;
#X connect 70 1 71 1;
#X connect 71 0 53 0;
#X connect 72 0 49 0;
#X connect 72 1 50 0;
#X connect 72 2 54 0;
#X connect 72 3 55 0;
#X connect 76 0 77 0;
#X connect 78 0 79 0;
#X connect 79 0 87 0;
#X connect 80 0 88 0;
#X connect 81 0 80 0;
#X connect 82 0 86 0;
#X connect 86 0 80 0;
#X connect 86 1 80 1;
#X connect 88 0 78 0;
#X connect 90 0 91 0;
#X connect 91 0 92 0;
#X connect 93 0 94 0;
#X connect 94 0 90 0;
#X connect 95 0 97 0;
#X connect 96 0 98 0;
#X connect 97 0 94 0;
#X connect 97 0 92 0;
#X connect 97 0 91 0;
#X connect 97 0 90 0;
#X connect 98 0 97 0;
#X connect 98 1 97 1;
#X connect 101 0 80 0;
#X connect 102 0 104 0;
#X connect 103 0 102 0;
#X connect 104 0 105 0;
#X connect 105 0 108 0;
#X connect 108 0 109 0;
#X connect 108 0 110 0;
#X connect 111 0 86 0;
#X restore 33 140 pd \$0-ad-defaut-osc;
#X obj 77 37 inlet;
#X connect 0 0 2 0;
#X connect 3 0 2 1;
#X restore 30 453 pd \$0-osc-audiostellar;
#X obj 30 140 t b b;
#X obj 30 233 pack f f;
#X obj 30 174 random 100;
#X obj 108 174 random 100;
#X obj 30 198 / 99;
#X obj 108 198 / 99;
#X obj 30 116 metro 500;
#X obj 126 94 i 0;
#X obj 126 118 t f f;
#X obj 30 281 unpack f f;
#X obj 30 429 pack f f;
#X floatatom 126 68 5 0 0 0 - - - 0;
#X obj 200 40 r \$0-lb;
#X msg 200 64 500;
#X obj 30 305 pack f f;
#X obj 110 305 pack f f;
#X obj 30 329 line;
#X obj 110 329 line;
#X obj 30 353 div 1;
#X obj 30 377 - 0;
#X obj 30 401 abs;
#X obj 110 353 div 1;
#X obj 110 377 - 0;
#X obj 110 401 abs;
#X connect 0 0 14 0;
#X connect 2 0 17 0;
#X connect 3 0 4 0;
#X connect 6 0 5 0;
#X connect 8 0 10 0;
#X connect 8 1 11 0;
#X connect 9 0 2 0;
#X connect 10 0 12 0;
#X connect 11 0 13 0;
#X connect 12 0 9 0;
#X connect 13 0 9 1;
#X connect 14 0 1 0;
#X connect 14 0 8 0;
#X connect 15 0 16 0;
#X connect 16 0 22 1;
#X connect 16 0 23 1;
#X connect 16 1 14 1;
#X connect 17 0 22 0;
#X connect 17 1 23 0;
#X connect 18 0 7 0;
#X connect 19 0 15 0;
#X connect 20 0 21 0;
#X connect 21 0 15 0;
#X connect 22 0 24 0;
#X connect 23 0 25 0;
#X connect 24 0 26 0;
#X connect 24 0 27 1;
#X connect 25 0 29 0;
#X connect 25 0 30 1;
#X connect 26 0 27 0;
#X connect 27 0 28 0;
#X connect 28 0 18 0;
#X connect 29 0 30 0;
#X connect 30 0 31 0;
#X connect 31 0 18 1;
