#N canvas 392 102 893 493 12;
#N canvas 182 182 450 300 \$0-osc-weki 0;
#X obj 27 49 oscformat wek inputs;
#X obj 27 99 netsend -u -b;
#X msg 181 44 connect localhost 6448;
#X obj 27 158 oscparse;
#X obj 27 133 netreceive -u -b 12000;
#X obj 181 20 r \$0-lb;
#X obj 27 20 inlet;
#X obj 90 250 outlet;
#X obj 27 182 unpack s s f f f f;
#X obj 90 226 pack f f f f;
#X connect 0 0 1 0;
#X connect 2 0 1 0;
#X connect 3 0 8 0;
#X connect 4 0 3 0;
#X connect 5 0 2 0;
#X connect 6 0 0 0;
#X connect 8 2 9 0;
#X connect 8 3 9 1;
#X connect 8 4 9 2;
#X connect 8 5 9 3;
#X connect 9 0 7 0;
#X restore 422 134 pd \$0-osc-weki;
#X obj 781 69 s \$0-lb;
#X obj 781 45 loadbang;
#N canvas 222 135 755 583 \$0-osc-audiostellar 0;
#X obj 33 7 inlet;
#N canvas 182 182 890 387 \$0-extras 0;
#X obj 17 225 netsend -u -b;
#X msg 17 129 connect 127.0.0.1 8000;
#X obj 17 298 oscparse;
#X obj 17 84 loadbang;
#X text 17 179 Send to AudioStellar;
#X text 17 248 Receive from AudioStellar;
#X text 28 107 Set IP address and port to send to;
#X text 544 13 In Pd OSC addresses are written without slashes;
#X obj 17 154 s osc_send;
#X obj 17 201 r osc_send;
#X obj 17 325 s osc_recieve;
#X obj 17 273 netreceive -u -b 9000;
#X obj 544 55 oscformat play xy;
#X obj 133 325 print received;
#X text 544 34 i.e this sets the OSC address to /play/xy;
#X text 150 273 Receiving port;
#X text 17 12 Enable OSC from AudioStellar in Settings > OSC. Create
an OSC Unit. Make sure send address is set to 127.0.0.1 or the IP of
the computer you want to receive OSC, f 80;
#X connect 1 0 8 0;
#X connect 2 0 10 0;
#X connect 3 0 1 0;
#X connect 9 0 0 0;
#X connect 11 0 2 0;
#X restore 468 514 pd \$0-extras;
#X obj 33 449 list prepend send;
#X obj 33 472 list trim;
#X obj 33 505 s osc_send;
#X obj 33 366 oscformat;
#X msg 33 343 set units \$1 volume;
#X obj 182 367 oscformat;
#X msg 182 343 set units \$1 pan;
#X obj 271 168 pack f 1000;
#X obj 271 192 line;
#X obj 392 168 pack f 1000;
#X obj 392 192 line;
#X obj 314 8 inlet;
#X obj 314 32 unpack f f;
#X floatatom 114 4 5 0 0 0 - - - 0;
#X obj 33 41 i 0;
#X floatatom 53 65 5 0 0 0 - - - 0;
#X obj 271 216 expr ($f1+.1)*.8;
#X obj 33 295 i 0;
#X obj 123 295 i 0;
#X obj 271 240 t b f;
#X obj 392 216 t b f;
#X connect 0 0 16 0;
#X connect 2 0 3 0;
#X connect 3 0 4 0;
#X connect 5 0 2 0;
#X connect 6 0 5 0;
#X connect 7 0 2 0;
#X connect 8 0 7 0;
#X connect 9 0 10 0;
#X connect 10 0 18 0;
#X connect 11 0 12 0;
#X connect 12 0 22 0;
#X connect 13 0 14 0;
#X connect 14 0 9 0;
#X connect 14 1 11 0;
#X connect 15 0 16 0;
#X connect 16 0 17 0;
#X connect 16 0 19 0;
#X connect 16 0 20 0;
#X connect 18 0 21 0;
#X connect 19 0 6 0;
#X connect 20 0 8 0;
#X connect 21 0 19 0;
#X connect 21 1 5 0;
#X connect 22 0 20 0;
#X connect 22 1 7 0;
#X restore 69 368 pd \$0-osc-audiostellar;
#X obj 37 96 i 0;
#X obj 725 63 tgl 30 0 empty empty empty 17 7 0 10 #fcfcfc #000000
#000000 0 1;
#X obj 703 125 bng 15 250 50 0 empty empty empty 17 7 0 10 #fcfcfc
#000000 #000000;
#X obj 97 140 + 0;
#X obj 227 96 i 0;
#X obj 287 140 + 0;
#X floatatom 307 278 5 0 0 0 - - - 0;
#X obj 90 66 t b f;
#X obj 280 66 t b f;
#X msg 67 188 11;
#X msg 257 188 3;
#X obj 97 164 sel -1;
#X obj 287 164 sel -1;
#N canvas 126 118 1124 483 \$0-as-default-osc 0;
#X obj 573 91 list prepend send;
#X obj 573 121 list trim;
#X obj 573 32 bng 15 250 50 0 empty empty empty 17 7 0 10 #fcfcfc #000000
#000000;
#X obj 772 150 list prepend send;
#X obj 772 180 list trim;
#X floatatom 772 61 5 0 0 0 - - - 0;
#X obj 772 280 list trim;
#X obj 772 91 pack;
#X text 771 36 Sound ID;
#X obj 623 385 list prepend set;
#X obj 623 411 list trim;
#X text 765 386 Get the IDs of neighbor sounds.;
#X text 831 36 threshold (min: 0 \, max: 1.0);
#X text 304 316 Get the number of sounds in dataset;
#X obj 573 148 s osc_send;
#X obj 772 207 s osc_send;
#X obj 772 257 r osc_recieve;
#X obj 573 61 oscformat get soundCount;
#X obj 772 120 oscformat get neighborsByID;
#X obj 772 304 route get;
#X obj 772 327 route neighborsByID;
#X obj 830 95 t b f;
#X text 772 233 Receive;
#X text 693 411 Neighbors IDs;
#X floatatom 829 63 5 0 0 0 - - - 0;
#X obj 889 60 loadbang;
#X obj 39 197 list prepend send;
#X obj 39 220 list trim;
#X obj 59 144 pack;
#X floatatom 59 73 5 0 1 0 - - - 0;
#X floatatom 115 73 5 0 1 0 - - - 0;
#X text 133 57 Send X and Y coordinates to play sounds;
#X text 50 52 X;
#X text 112 53 Y;
#X obj 105 98 t b f;
#X obj 39 243 s osc_send;
#X obj 39 174 oscformat play xy;
#X text 154 74 (Shift + drag to send decimal values);
#X obj 220 269 list prepend send;
#X obj 220 293 list trim;
#X obj 220 315 s osc_send;
#X obj 220 247 oscformat play clusterBySoundId;
#X floatatom 195 174 5 0 0 0 - - - 0;
#X floatatom 234 173 5 0 0 0 - - - 0;
#X obj 184 225 pack;
#X obj 224 196 t b f;
#X text 177 138 Play a random sound from the cluster that contains
this sound ID;
#X text 279 175 Instead of random \, select the index from selected
cluster;
#X obj 50 12 inlet;
#X msg 623 435 4 5 9 15 24 26 27 31 32 44 45 64 65 66 67 68 70 85 89
94 96 97 98 105;
#X obj 263 10 inlet;
#X msg 890 81 0.02;
#X floatatom 263 34 5 0 0 0 - - - 0;
#N canvas 453 35 834 784 \$0-recieve 0;
#X obj 85 403 list prepend send;
#X obj 85 433 list trim;
#X obj 85 314 tgl 15 0 empty empty empty 17 7 0 10 #fcfcfc #000000
#000000 0 1;
#X obj 86 530 list trim;
#X text 105 313 Enable:1 disable: 0;
#X floatatom 85 342 5 0 0 0 - - - 0;
#X obj 85 460 s osc_send;
#X obj 86 509 r osc_recieve;
#X obj 338 402 list prepend send;
#X obj 338 425 list trim;
#X floatatom 388 354 5 0 0 0 - - - 0;
#X obj 338 447 s osc_send;
#X text 424 353 SoundID;
#X obj 338 525 list trim;
#X obj 338 493 r osc_recieve;
#X text 336 297 Get cluster name by sound ID;
#X obj 338 591 symbol;
#X symbolatom 338 613 10 0 0 0 - - - 0;
#X obj 86 552 route get;
#X obj 338 547 route get;
#X obj 338 569 route clusterNameByID;
#X obj 338 380 oscformat get clusterNameByID;
#X obj 289 120 symbol;
#X obj 289 198 list prepend send;
#X obj 289 222 list trim;
#X obj 289 244 s osc_send;
#X msg 289 65 Snares;
#X msg 299 91 Kicks;
#X floatatom 86 633 5 0 0 0 - - - 0;
#X floatatom 122 633 5 0 0 0 - - - 0;
#X floatatom 351 98 5 0 0 0 - - - 0;
#X obj 289 176 oscformat play cluster;
#X floatatom 157 633 5 0 0 0 - - - 0;
#X floatatom 195 633 5 0 0 0 - - - 0;
#X obj 86 687 s id_received;
#X obj 85 373 oscformat get playedSound;
#X obj 86 577 route playedSound;
#X text 85 286 Get information from any played sound;
#X text 86 484 Receive;
#X obj 338 323 r id_received;
#X text 338 470 Receive;
#X text 405 603 Cluster name;
#X obj 350 124 t b f;
#X obj 320 153 pack s f;
#X obj 86 605 unpack f f f f;
#X text 348 76 Instead of random \, select the index from selected
cluster;
#X text 288 28 Play a random sound from the cluster named "Snares"
or "Kicks", f 39;
#X text 66 658 soundID \, clusterID \, x and y;
#X obj 598 416 list trim;
#X obj 598 390 r osc_recieve;
#X obj 598 440 route get;
#X obj 598 466 route soundCount;
#X text 598 365 Receive;
#X text 635 493 Sound count;
#X obj 598 490 i 0;
#X floatatom 606 535 5 0 0 0 - - - 0;
#X connect 0 0 1 0;
#X connect 1 0 6 0;
#X connect 2 0 5 0;
#X connect 3 0 18 0;
#X connect 5 0 35 0;
#X connect 7 0 3 0;
#X connect 8 0 9 0;
#X connect 9 0 11 0;
#X connect 10 0 21 0;
#X connect 13 0 19 0;
#X connect 14 0 13 0;
#X connect 16 0 17 0;
#X connect 18 0 36 0;
#X connect 19 0 20 0;
#X connect 20 0 16 0;
#X connect 21 0 8 0;
#X connect 22 0 31 0;
#X connect 22 0 43 0;
#X connect 23 0 24 0;
#X connect 24 0 25 0;
#X connect 26 0 22 0;
#X connect 27 0 22 0;
#X connect 28 0 34 0;
#X connect 30 0 42 0;
#X connect 31 0 23 0;
#X connect 35 0 0 0;
#X connect 36 0 44 0;
#X connect 39 0 21 0;
#X connect 42 0 43 0;
#X connect 42 1 43 1;
#X connect 43 0 31 0;
#X connect 44 0 28 0;
#X connect 44 1 29 0;
#X connect 44 2 32 0;
#X connect 44 3 33 0;
#X connect 48 0 50 0;
#X connect 49 0 48 0;
#X connect 50 0 51 0;
#X connect 51 0 54 0;
#X connect 54 0 55 0;
#X restore 158 385 pd \$0-recieve;
#X connect 0 0 1 0;
#X connect 1 0 14 0;
#X connect 2 0 17 0;
#X connect 3 0 4 0;
#X connect 4 0 15 0;
#X connect 5 0 7 0;
#X connect 6 0 19 0;
#X connect 7 0 18 0;
#X connect 9 0 10 0;
#X connect 10 0 49 0;
#X connect 16 0 6 0;
#X connect 17 0 0 0;
#X connect 18 0 3 0;
#X connect 19 0 20 0;
#X connect 20 0 9 0;
#X connect 21 0 7 0;
#X connect 21 1 7 1;
#X connect 24 0 21 0;
#X connect 25 0 51 0;
#X connect 26 0 27 0;
#X connect 27 0 35 0;
#X connect 28 0 36 0;
#X connect 29 0 28 0;
#X connect 30 0 34 0;
#X connect 34 0 28 0;
#X connect 34 1 28 1;
#X connect 36 0 26 0;
#X connect 38 0 39 0;
#X connect 39 0 40 0;
#X connect 41 0 38 0;
#X connect 42 0 44 0;
#X connect 43 0 45 0;
#X connect 44 0 41 0;
#X connect 44 0 40 0;
#X connect 44 0 39 0;
#X connect 44 0 38 0;
#X connect 45 0 44 0;
#X connect 45 1 44 1;
#X connect 48 0 36 0;
#X connect 50 0 44 0;
#X connect 50 0 52 0;
#X connect 51 0 24 0;
#X restore 422 270 pd \$0-as-default-osc;
#N canvas 333 318 605 255 \$0-midi-triggers 0;
#X obj 78 59 sel 0 127;
#X obj 197 59 sel 0 127;
#X obj 78 127 f 0;
#X obj 197 127 f 0;
#X obj 268 199 outlet;
#X msg 78 93 0;
#X msg 197 93 0;
#X floatatom 78 151 5 0 0 0 - - - 0;
#X floatatom 197 151 5 0 0 0 - - - 0;
#X msg 227 93 1;
#X msg 108 93 -1;
#X obj 25 25 notein 7;
#X obj 144 25 notein 8;
#X connect 0 0 5 0;
#X connect 0 1 10 0;
#X connect 1 0 6 0;
#X connect 1 1 9 0;
#X connect 2 0 4 0;
#X connect 2 0 7 0;
#X connect 3 0 4 0;
#X connect 3 0 8 0;
#X connect 5 0 2 0;
#X connect 6 0 3 0;
#X connect 9 0 3 0;
#X connect 10 0 2 0;
#X connect 11 1 0 0;
#X connect 12 1 1 0;
#X restore 280 42 pd \$0-midi-triggers;
#N canvas 84 242 797 386 \$0-midi-btns 0;
#X obj 68 49 sel 0 127;
#X obj 268 340 outlet;
#X obj 187 49 sel 0 127;
#X msg 98 73 1;
#X obj 318 49 sel 0 127;
#X obj 437 49 sel 0 127;
#X msg 348 73 1;
#X obj 68 131 pack f 1000;
#X obj 68 155 line;
#X obj 187 131 pack f 1000;
#X obj 187 155 line;
#X obj 318 131 pack f 1000;
#X obj 318 155 line;
#X obj 437 131 pack f 1000;
#X obj 437 155 line;
#X obj 146 286 f 0;
#X obj 318 219 t b f;
#X obj 134 25 notein 1;
#X obj 15 25 notein 3;
#X obj 265 25 notein 4;
#X obj 385 25 notein 2;
#X msg 68 73 0.5;
#X msg 187 73 0.5;
#X msg 217 73 0;
#X msg 318 73 0.5;
#X msg 437 73 0.5;
#X msg 467 73 0;
#X obj 68 107 f 0;
#X obj 187 107 f 0;
#X obj 318 107 f 0;
#X obj 437 107 f 0;
#X obj 578 49 sel 0 127;
#X obj 697 49 sel 0 127;
#X msg 608 73 1;
#X obj 578 131 pack f 1000;
#X obj 578 155 line;
#X obj 697 131 pack f 1000;
#X obj 697 155 line;
#X obj 578 107 f 0;
#X obj 697 107 f 0;
#X msg 578 73 0;
#X msg 697 73 0;
#X msg 727 73 1;
#X floatatom 146 310 5 0 0 0 - - - 0;
#X obj 268 313 pack 0 0 0 0;
#X obj 525 25 notein 9;
#X obj 644 25 notein 10;
#X obj 578 179 t b f;
#X obj 697 179 t b f;
#X connect 0 0 21 0;
#X connect 0 1 3 0;
#X connect 2 0 22 0;
#X connect 2 1 23 0;
#X connect 3 0 27 0;
#X connect 4 0 24 0;
#X connect 4 1 6 0;
#X connect 5 0 25 0;
#X connect 5 1 26 0;
#X connect 6 0 29 0;
#X connect 7 0 8 0;
#X connect 8 0 15 0;
#X connect 9 0 10 0;
#X connect 10 0 15 0;
#X connect 11 0 12 0;
#X connect 12 0 16 0;
#X connect 13 0 14 0;
#X connect 14 0 16 0;
#X connect 15 0 43 0;
#X connect 15 0 44 0;
#X connect 16 0 15 0;
#X connect 16 1 44 1;
#X connect 17 1 2 0;
#X connect 18 1 0 0;
#X connect 19 1 4 0;
#X connect 20 1 5 0;
#X connect 21 0 27 0;
#X connect 22 0 28 0;
#X connect 23 0 28 0;
#X connect 24 0 29 0;
#X connect 25 0 30 0;
#X connect 26 0 30 0;
#X connect 27 0 7 0;
#X connect 28 0 9 0;
#X connect 29 0 11 0;
#X connect 30 0 13 0;
#X connect 31 0 40 0;
#X connect 31 1 33 0;
#X connect 32 0 41 0;
#X connect 32 1 42 0;
#X connect 33 0 38 0;
#X connect 34 0 35 0;
#X connect 35 0 47 0;
#X connect 36 0 37 0;
#X connect 37 0 48 0;
#X connect 38 0 34 0;
#X connect 39 0 36 0;
#X connect 40 0 38 0;
#X connect 41 0 39 0;
#X connect 42 0 39 0;
#X connect 44 0 1 0;
#X connect 45 1 31 0;
#X connect 46 1 32 0;
#X connect 47 0 15 0;
#X connect 47 1 44 2;
#X connect 48 0 15 0;
#X connect 48 1 44 3;
#X restore 422 72 pd \$0-midi-btns;
#N canvas 333 318 605 255 \$0-midi-bumpers 0;
#X obj 78 59 sel 0 127;
#X obj 197 59 sel 0 127;
#X obj 78 127 f 0;
#X obj 197 127 f 0;
#X obj 25 25 notein 5;
#X obj 144 25 notein 6;
#X obj 268 199 outlet;
#X msg 78 93 0;
#X msg 197 93 0;
#X floatatom 78 151 5 0 0 0 - - - 0;
#X floatatom 197 151 5 0 0 0 - - - 0;
#X msg 227 93 1;
#X msg 108 93 -1;
#X connect 0 0 7 0;
#X connect 0 1 12 0;
#X connect 1 0 8 0;
#X connect 1 1 11 0;
#X connect 2 0 6 0;
#X connect 2 0 9 0;
#X connect 3 0 6 0;
#X connect 3 0 10 0;
#X connect 4 1 0 0;
#X connect 5 1 1 0;
#X connect 7 0 2 0;
#X connect 8 0 3 0;
#X connect 11 0 3 0;
#X connect 12 0 2 0;
#X restore 90 42 pd \$0-midi-bumpers;
#X obj 117 234 % 13;
#X floatatom 117 278 5 0 0 0 - - - 0;
#X obj 725 101 metro 1000;
#X obj 307 234 % 2;
#X obj 725 278 f 0;
#X obj 757 278 f 0;
#X obj 725 125 t b b;
#X obj 725 302 pack f f;
#X obj 422 158 unpack f f f f;
#X floatatom 372 182 5 0 0 0 - - - 0;
#X obj 422 192 expr $f1*$f3 \; $f2*$f4 \;;
#X obj 432 96 unpack f f;
#X obj 422 230 pack f f;
#X connect 0 0 29 0;
#X connect 2 0 1 0;
#X connect 4 0 7 0;
#X connect 5 0 23 0;
#X connect 7 0 15 0;
#X connect 8 0 9 0;
#X connect 9 0 16 0;
#X connect 11 0 4 0;
#X connect 11 1 7 1;
#X connect 12 0 8 0;
#X connect 12 1 9 1;
#X connect 13 0 11 0;
#X connect 14 0 12 0;
#X connect 15 0 13 0;
#X connect 15 1 21 0;
#X connect 16 0 14 0;
#X connect 16 1 24 0;
#X connect 18 0 12 0;
#X connect 19 0 0 0;
#X connect 19 0 32 0;
#X connect 20 0 11 0;
#X connect 21 0 4 1;
#X connect 21 0 22 0;
#X connect 21 0 3 0;
#X connect 23 0 6 0;
#X connect 23 0 27 0;
#X connect 24 0 8 1;
#X connect 24 0 10 0;
#X connect 25 0 28 0;
#X connect 26 0 28 1;
#X connect 27 0 25 0;
#X connect 27 1 26 0;
#X connect 28 0 3 1;
#X connect 29 0 30 0;
#X connect 29 0 31 0;
#X connect 29 1 31 1;
#X connect 29 2 25 1;
#X connect 29 3 26 1;
#X connect 31 0 33 0;
#X connect 31 1 33 1;
#X connect 32 0 31 2;
#X connect 32 1 31 3;
#X connect 33 0 17 0;
