#N canvas -6 16 1500 957 10;
#X obj 17 225 netsend -u -b;
#X msg 17 129 connect 127.0.0.1 8000;
#X obj 18 486 list prepend send;
#X obj 18 516 list trim;
#X obj 258 239 list prepend send;
#X obj 258 269 list trim;
#X obj 258 179 pack;
#X floatatom 258 128 5 0 1 0 - - - 0;
#X floatatom 304 128 5 0 1 0 - - - 0;
#X obj 18 397 tgl 15 0 empty empty empty 17 7 0 10 #fcfcfc #000000
#000000 0 1;
#X obj 17 298 oscparse;
#X obj 19 613 list trim;
#X obj 251 456 list prepend send;
#X obj 251 486 list trim;
#X obj 251 397 bng 15 250 50 0 empty empty empty 17 7 0 10 #fcfcfc
#000000 #000000;
#X obj 252 589 list trim;
#X floatatom 252 666 5 0 0 0 - - - 0;
#X obj 475 512 list prepend send;
#X obj 475 542 list trim;
#X floatatom 475 423 5 0 0 0 - - - 0;
#X obj 475 642 list trim;
#X obj 475 453 pack;
#X text 474 398 Sound ID;
#X obj 475 714 list prepend set;
#X obj 475 740 list trim;
#X obj 17 84 loadbang;
#X text 248 89 Send X and Y coordinates to play sounds;
#X text 259 107 X;
#X text 311 108 Y;
#X text 38 396 Enable:1 disable: 0;
#X floatatom 18 425 5 0 0 0 - - - 0;
#X text 17 179 Send to AudioStellar;
#X text 17 248 Receive from AudioStellar;
#X text 475 370 Get the IDs of neighbor sounds.;
#X text 534 398 threshold (min: 0 \, max: 1.0);
#X text 28 107 Set IP address and port to send to;
#X text 544 13 In Pd OSC addresses are written without slashes;
#X text 251 370 Get the number of sounds in dataset;
#X obj 304 153 t b f;
#X obj 258 296 s osc_send;
#X obj 18 543 s osc_send;
#X obj 251 513 s osc_send;
#X obj 475 569 s osc_send;
#X obj 17 154 s osc_send;
#X obj 17 201 r osc_send;
#X obj 17 325 s osc_recieve;
#X obj 19 592 r osc_recieve;
#X obj 252 563 r osc_recieve;
#X obj 475 619 r osc_recieve;
#X obj 17 273 netreceive -u -b 9000;
#X obj 725 463 list prepend send;
#X obj 725 486 list trim;
#X floatatom 725 415 5 0 0 0 - - - 0;
#X obj 725 508 s osc_send;
#X text 761 414 SoundID;
#X obj 725 576 list trim;
#X obj 725 554 r osc_recieve;
#X text 723 368 Get cluster name by sound ID;
#X obj 725 642 symbol;
#X symbolatom 725 664 10 0 0 0 - - - 0;
#X obj 251 426 oscformat get soundCount;
#X obj 475 482 oscformat get neighborsByID;
#X obj 544 55 oscformat play xy;
#X obj 19 635 route get;
#X obj 252 613 route get;
#X obj 252 639 route soundCount;
#X obj 475 666 route get;
#X obj 475 689 route neighborsByID;
#X obj 725 598 route get;
#X obj 725 620 route clusterNameByID;
#X obj 725 441 oscformat get clusterNameByID;
#X obj 103 325 print received;
#X obj 501 174 symbol;
#X obj 501 252 list prepend send;
#X obj 501 276 list trim;
#X obj 501 298 s osc_send;
#X obj 748 243 list prepend send;
#X obj 748 267 list trim;
#X obj 748 289 s osc_send;
#X floatatom 748 119 5 0 0 0 - - - 0;
#X msg 501 119 Snares;
#X msg 511 145 Kicks;
#X floatatom 19 716 5 0 0 0 - - - 0;
#X floatatom 55 716 5 0 0 0 - - - 0;
#X obj 748 221 oscformat play clusterBySoundId;
#X floatatom 794 142 5 0 0 0 - - - 0;
#X floatatom 833 141 5 0 0 0 - - - 0;
#X obj 793 193 pack;
#X floatatom 563 152 5 0 0 0 - - - 0;
#X msg 475 765 0 28 36 40 85 97;
#X obj 258 209 oscformat play xy;
#X obj 501 230 oscformat play cluster;
#X floatatom 90 716 5 0 0 0 - - - 0;
#X floatatom 128 716 5 0 0 0 - - - 0;
#X obj 19 740 s id_received;
#X obj 18 456 oscformat get playedSound;
#X obj 19 660 route playedSound;
#X obj 533 457 t b f;
#X text 18 369 Get information from any played sound;
#X text 544 34 i.e this sets the OSC address to /play/xy;
#X text 19 567 Receive;
#X text 252 538 Receive;
#X text 475 595 Receive;
#X text 389 765 Neighbors IDs;
#X text 289 666 Sound count;
#X obj 725 394 r id_received;
#X text 725 531 Receive;
#X text 792 664 Cluster name;
#X text 150 273 Receiving port;
#X msg 593 443 0.025;
#X floatatom 532 425 5 0 0 0 - - - 0;
#X obj 592 422 loadbang;
#X obj 562 178 t b f;
#X obj 532 207 pack s f;
#X obj 833 164 t b f;
#X obj 19 688 unpack f f f f;
#X text 603 151 Instead of random \, select the index from selected
cluster;
#X text 500 82 Play a random sound from the cluster named "Snares"
or "Kicks", f 39;
#X text 17 12 Enable OSC from AudioStellar in Settings > OSC. Create
an OSC Unit. Make sure send address is set to 127.0.0.1 or the IP of
the computer you want to receive OSC, f 80;
#X text 343 129 (Shift + drag to send decimal values);
#X text 746 81 Play a random sound from the cluster that contains this
sound ID;
#X text 876 140 Instead of random \, select the index from selected
cluster;
#X text 168 716 soundID \, clusterID \, x and y;
#X msg 94 519 devicename /dev/ttyUSB0;
#X obj 122 565 comport;
#X obj 878 14 r n1;
#X obj 878 36 expr floor($f1*105)+1;
#X floatatom 878 58 5 0 0 0 - - - 0;
#X connect 1 0 43 0;
#X connect 2 0 3 0;
#X connect 3 0 40 0;
#X connect 4 0 5 0;
#X connect 5 0 39 0;
#X connect 6 0 90 0;
#X connect 7 0 6 0;
#X connect 8 0 38 0;
#X connect 9 0 30 0;
#X connect 10 0 45 0;
#X connect 10 0 71 0;
#X connect 11 0 63 0;
#X connect 12 0 13 0;
#X connect 13 0 41 0;
#X connect 14 0 60 0;
#X connect 15 0 64 0;
#X connect 17 0 18 0;
#X connect 18 0 42 0;
#X connect 19 0 21 0;
#X connect 20 0 66 0;
#X connect 21 0 61 0;
#X connect 23 0 24 0;
#X connect 24 0 89 0;
#X connect 25 0 1 0;
#X connect 30 0 95 0;
#X connect 38 0 6 0;
#X connect 38 1 6 1;
#X connect 44 0 0 0;
#X connect 46 0 11 0;
#X connect 47 0 15 0;
#X connect 48 0 20 0;
#X connect 49 0 10 0;
#X connect 50 0 51 0;
#X connect 51 0 53 0;
#X connect 52 0 70 0;
#X connect 55 0 68 0;
#X connect 56 0 55 0;
#X connect 58 0 59 0;
#X connect 60 0 12 0;
#X connect 61 0 17 0;
#X connect 63 0 96 0;
#X connect 64 0 65 0;
#X connect 65 0 16 0;
#X connect 66 0 67 0;
#X connect 67 0 23 0;
#X connect 68 0 69 0;
#X connect 69 0 58 0;
#X connect 70 0 50 0;
#X connect 72 0 91 0;
#X connect 72 0 113 0;
#X connect 73 0 74 0;
#X connect 74 0 75 0;
#X connect 76 0 77 0;
#X connect 77 0 78 0;
#X connect 79 0 84 0;
#X connect 80 0 72 0;
#X connect 81 0 72 0;
#X connect 82 0 94 0;
#X connect 84 0 76 0;
#X connect 85 0 87 0;
#X connect 86 0 114 0;
#X connect 87 0 84 0;
#X connect 87 0 78 0;
#X connect 87 0 77 0;
#X connect 87 0 76 0;
#X connect 88 0 112 0;
#X connect 90 0 4 0;
#X connect 91 0 73 0;
#X connect 95 0 2 0;
#X connect 96 0 115 0;
#X connect 97 0 21 0;
#X connect 97 1 21 1;
#X connect 105 0 52 0;
#X connect 109 0 110 0;
#X connect 110 0 97 0;
#X connect 111 0 109 0;
#X connect 112 0 113 0;
#X connect 112 1 113 1;
#X connect 113 0 91 0;
#X connect 114 0 87 0;
#X connect 114 1 87 1;
#X connect 115 0 82 0;
#X connect 115 1 83 0;
#X connect 115 2 92 0;
#X connect 115 3 93 0;
#X connect 123 0 124 0;
#X connect 125 0 126 0;
#X connect 126 0 127 0;
#X connect 126 0 84 0;
