#N canvas 193 94 806 496 12;
#X obj 65 37 notein 1;
#X obj 65 61 bng 15 250 50 0 empty empty empty 17 7 0 10 #fcfcfc #000000
#000000;
#X obj 191 61 bng 15 250 50 0 empty empty empty 17 7 0 10 #fcfcfc #000000
#000000;
#X obj 317 61 bng 15 250 50 0 empty empty empty 17 7 0 10 #fcfcfc #000000
#000000;
#X obj 442 61 bng 15 250 50 0 empty empty empty 17 7 0 10 #fcfcfc #000000
#000000;
#X obj 568 61 bng 15 250 50 0 empty empty empty 17 7 0 10 #fcfcfc #000000
#000000;
#X obj 127 61 bng 15 250 50 0 empty empty empty 17 7 0 10 #fcfcfc #000000
#000000;
#X obj 253 61 bng 15 250 50 0 empty empty empty 17 7 0 10 #fcfcfc #000000
#000000;
#X obj 379 61 bng 15 250 50 0 empty empty empty 17 7 0 10 #fcfcfc #000000
#000000;
#X obj 504 61 bng 15 250 50 0 empty empty empty 17 7 0 10 #fcfcfc #000000
#000000;
#X obj 630 61 bng 15 250 50 0 empty empty empty 17 7 0 10 #fcfcfc #000000
#000000;
#X obj 127 37 notein 2;
#X obj 191 37 notein 3;
#X obj 253 37 notein 4;
#X obj 317 37 notein 5;
#X obj 379 37 notein 6;
#X obj 442 37 notein 7;
#X obj 504 37 notein 8;
#X obj 568 37 notein 9;
#X obj 630 37 notein 10;
#X msg 65 81 1;
#X msg 127 81 2;
#X msg 191 81 3;
#X msg 253 81 4;
#X msg 317 81 5;
#X msg 379 81 6;
#X msg 442 81 7;
#X msg 504 81 8;
#X msg 568 81 9;
#X msg 630 81 10;
#X obj 65 138 / 10;
#X obj 65 296 s n1;
#X obj 364 134 tgl 15 0 empty empty empty 17 7 0 10 #fcfcfc #000000
#000000 0 1;
#X obj 65 186 t f b;
#X obj 65 210 + 0;
#X obj 98 209 random 10;
#X obj 98 233 / 100;
#X floatatom 15 244 5 0 0 0 - - - 0;
#X obj 365 158 metro 100;
#X connect 0 0 1 0;
#X connect 1 0 20 0;
#X connect 2 0 22 0;
#X connect 3 0 24 0;
#X connect 4 0 26 0;
#X connect 5 0 28 0;
#X connect 6 0 21 0;
#X connect 7 0 23 0;
#X connect 8 0 25 0;
#X connect 9 0 27 0;
#X connect 10 0 29 0;
#X connect 11 0 6 0;
#X connect 12 0 2 0;
#X connect 13 0 7 0;
#X connect 14 0 3 0;
#X connect 15 0 8 0;
#X connect 16 0 4 0;
#X connect 17 0 9 0;
#X connect 18 0 5 0;
#X connect 19 0 10 0;
#X connect 20 0 30 0;
#X connect 21 0 30 0;
#X connect 22 0 30 0;
#X connect 23 0 30 0;
#X connect 24 0 30 0;
#X connect 25 0 30 0;
#X connect 26 0 30 0;
#X connect 27 0 30 0;
#X connect 28 0 30 0;
#X connect 29 0 30 0;
#X connect 30 0 33 0;
#X connect 32 0 38 0;
#X connect 33 0 34 0;
#X connect 33 1 35 0;
#X connect 34 0 37 0;
#X connect 34 0 31 0;
#X connect 35 0 36 0;
#X connect 36 0 34 1;
